<svg width="240" height="240" viewBox="0 0 240 240" fill="none" xmlns="http://www.w3.org/2000/svg">
<circle cx="120" cy="120" r="120" fill="#D9D9D9"/>
<path d="M91.9993 44.5685C110.775 53.7322 120.077 85.7793 120.309 86.284C120.459 86.3174 120.611 86.3477 120.765 86.3707C126.178 71.7307 136.506 53.3568 150.229 47.2379C162.521 41.8013 180.759 45.1426 193.485 49.8739C193.656 49.9355 193.827 50.0096 193.979 50.1181C185.468 50.0345 181.754 51.2832 178.316 52.8303C177.415 52.4848 176.534 52.085 175.632 51.7446C175.136 52.3136 174.767 53.0016 174.262 53.5591C162.106 56.2101 159.467 56.291 150.122 64.8108C149.253 64.6333 148.434 64.2178 147.577 63.9715C147.333 65.0541 147.232 66.167 147.018 67.2568C137.051 69.5893 129.466 76.5496 122.589 85.5814C122.379 85.856 122.167 86.1295 121.99 86.429C122.719 85.931 140.601 69.4857 158.647 66.5145C165.728 65.3158 172.835 66.2106 182.575 71.9921C192.676 78.0293 201.155 87.0429 204 90.5964C195.86 86.3014 194.139 85.7827 188.993 85.1794C188.347 84.4288 187.751 83.6301 187.114 82.8732C184.108 84.1265 186.744 84.143 179.517 82.1007C172.796 80.1301 169.824 78.9856 158.778 81.6236C158.069 81.0557 157.559 80.2383 156.887 79.614C156.19 80.4492 155.611 81.3887 154.908 82.2176C139.128 77.4998 126.126 86.9849 121.728 88.4699C121.627 88.6244 121.681 88.8311 121.668 89.0075C121.714 90.3156 121.501 91.609 121.32 92.8973C120.705 111.358 106.609 133.996 105.323 137.142C99.2384 151.759 102.962 171.683 107.614 186.797C107.847 187.496 108.026 188.216 108.305 188.898C103.739 192.874 93.2381 197.119 90.6723 198C86.9544 133.736 103.74 135.659 117.144 92.3765C117.713 90.7167 117.278 90.622 118.576 87.6714C108.835 81.512 97.6635 77.0654 86.6597 79.4867C86.0488 78.5754 85.5043 77.6149 84.8904 76.7067C84.2081 77.306 83.5833 77.9741 82.9029 78.5765C71.4882 74.8225 68.9858 75.7239 56.4224 78.5202C55.7807 78.1819 55.1678 77.7853 54.534 77.4324C53.7902 78.0974 53.1714 78.92 52.4246 79.5798C48.6692 79.6067 44.8712 80.0859 37 83.7817C45.3599 75.2149 58.3559 65.8506 70.2869 63.2147C87.4331 59.3873 106.285 73.5932 118.983 86.4145C118.146 85.0004 114.405 79.4829 109.675 74.6125C104.931 69.6423 99.641 66.5656 94.7542 65.1554C94.6084 64.0561 94.529 62.9474 94.4041 61.845C93.5373 61.9901 92.6973 62.3273 91.8335 62.5141C91.5727 62.3366 91.3843 62.0652 91.1551 61.847C83.1793 53.6585 80.451 53.1917 68.341 49.6494C67.8997 49.046 67.5466 48.3757 67.1161 47.764C66.1859 48.026 65.2824 48.3862 64.3571 48.667C60.9173 46.8434 57.5854 45.4834 48.871 44.9181C50.3583 44.1772 76.0651 36.7077 91.9993 44.5685Z" fill="#3D441E"/>
</svg>
